<svg xmlns="http://www.w3.org/2000/svg" viewBox="0 0 24 24"><path fill="currentColor" d="M1.811 10.231c-.047 0-.058-.023-.035-.059l.246-.315c.023-.035.081-.058.128-.058h4.172c.046 0 .058.035.035.07l-.199.303c-.023.036-.082.07-.117.07zM.047 11.306c-.047 0-.059-.023-.035-.058l.245-.316c.023-.035.082-.058.129-.058h5.328c.047 0 .07.035.058.07l-.093.28c-.012.047-.058.07-.105.07zm2.828 1.075c-.047 0-.059-.035-.035-.07l.163-.292c.023-.035.07-.07.117-.07h2.337c.047 0 .07.035.07.082l-.023.28c0 .047-.047.082-.082.082zm12.129-2.36c-.736.187-1.239.327-1.963.514-.176.046-.187.058-.34-.117-.174-.199-.303-.327-.548-.444-.737-.362-1.45-.257-2.115.175-.789.514-1.193 1.261-1.18 2.16.011.886.654 1.612 1.528 1.729.21.028.632-.014.839-.14l-.024.024c-.293.199-.584.456-.912.398-.469-.082-.745-.386-.886-.828-.012-.046-.059-.07-.105-.058l-.851.246c-.047.012-.07.058-.059.093.245.748.757 1.298 1.506 1.496.873.233 1.714.175 2.482-.351.887-.608 1.319-1.449 1.39-2.482.048-.768-.222-1.439-.783-1.998-.374-.374-.828-.586-1.366-.644.583-.082 1.086.012 1.541.363.375.293.62.666.735 1.11.012.046.059.07.093.058l.944-.293a.07.07 0 0 0 .047-.093c-.351-1.146-1.239-1.834-2.36-2.139zm4.544.468c-.339-.386-.804-.597-1.319-.655.538-.093.994.012 1.39.363.329.293.549.666.641 1.11.012.046.059.07.093.058l.944-.293a.07.07 0 0 0 .047-.093c-.293-.968-.932-1.693-1.855-2.058-.596-.233-1.192-.268-1.8-.117-.886.222-1.542.749-1.963 1.567-.456.886-.514 1.834-.117 2.77.34.794.933 1.332 1.786 1.555.653.175 1.283.14 1.879-.14.879-.421 1.413-1.11 1.621-2.047.023-.105.012-.21-.024-.303-.174-.199-.303-.327-.547-.444-.737-.362-1.45-.257-2.115.175-.79.514-1.193 1.261-1.181 2.16.012.886.655 1.612 1.529 1.729.21.028.631-.014.838-.14l-.023.024z"/></svg>
