<svg xmlns="http://www.w3.org/2000/svg" viewBox="0 0 24 24"><path fill="currentColor" d="M10.204 14.35l.007.01-.999 2.413a5.171 5.171 0 0 1-2.075-2.597l2.578-.437.004.005a.44.44 0 0 1 .484.606zm-.833-2.129a.44.44 0 0 0 .173-.756l.002-.011L7.585 9.7a5.143 5.143 0 0 0-.73 3.255l2.514-.725.002-.009zm1.145-1.98a.44.44 0 0 0 .699-.337l.01-.005.15-2.62a5.144 5.144 0 0 0-3.01 1.442l2.147 1.523.004-.002zm2.369 1.482a.44.44 0 0 0 .148.77l.002.015.973 2.424a5.15 5.15 0 0 0 1.578-2.956l-2.706.747h.005zm-.636-1.119a.44.44 0 0 0 .726.3l.012.006 2.065-1.487a5.16 5.16 0 0 0-2.96-1.399l.155 2.576.002.004zM12 0C5.373 0 0 5.373 0 12s5.373 12 12 12 12-5.373 12-12S18.627 0 12 0zm5.894 14.842a1.128 1.128 0 0 1-.244.155 1.078 1.078 0 0 1-.402.08h-.003a1.079 1.079 0 0 1-.318-.052 1.132 1.132 0 0 1-.105-.046l-.065-.036a1.062 1.062 0 0 1-.177-.139l-.058-.058-.005.003a1.042 1.042 0 0 1-.127-.18.962.962 0 0 1-.038-.078 1.052 1.052 0 0 1-.079-.262l-.006-.038a6.317 6.317 0 0 1-1.745 2.676l.006.004a.976.976 0 0 1-.072.192c-.02.042-.041.082-.065.12a.994.994 0 0 1-.139.157l-.024.023a1.093 1.093 0 0 1-.468.264v.002a1.1 1.1 0 0 1-.322.05c-.036 0-.07-.005-.106-.008a1.125 1.125 0 0 1-.272-.066l-.039-.016a1.07 1.07 0 0 1-.252-.155l-.005-.004a1.116 1.116 0 0 1-.098-.107.953.953 0 0 1-.06-.078 1.086 1.086 0 0 1-.127-.233 6.354 6.354 0 0 1-2.878-.95.968.968 0 0 1-.228.078 1.085 1.085 0 0 1-.227.025c-.075.003-.149-.003-.221-.019a1.065 1.065 0 0 1-.233-.077 1.04 1.04 0 0 1-.3-.239 1.108 1.108 0 0 1-.13-.192.972.972 0 0 1-.04-.092.998.998 0 0 1-.052-.246 6.292 6.292 0 0 1-1.297-2.808.946.946 0 0 1-.154.013c-.04.002-.079-.002-.117-.008a1.092 1.092 0 0 1-.277-.074 1.086 1.086 0 0 1-.263-.156 1.073 1.073 0 0 1-.15-.154 1.066 1.066 0 0 1-.183-.368 1.065 1.065 0 0 1-.038-.317 1 1 0 0 1 .014-.142 1.065 1.065 0 0 1 .155-.415 6.286 6.286 0 0 1-.334-3.32 1.07 1.07 0 0 1-.16-.092 1.066 1.066 0 0 1-.186-.198 1.063 1.063 0 0 1-.17-.404c-.018-.1-.018-.201 0-.3a1.1 1.1 0 0 1 .088-.262 1.108 1.108 0 0 1 .18-.252c.031-.033.062-.063.096-.093a6.314 6.314 0 0 1 2.39-2.648 1.082 1.082 0 0 1-.008-.123c.002-.073.01-.146.03-.215a1.1 1.1 0 0 1 .078-.233c.04-.074.087-.144.142-.208a1.089 1.089 0 0 1 .465-.3 1.06 1.06 0 0 1 .299-.047 1.1 1.1 0 0 1 .46.107 6.365 6.365 0 0 1 3.278-1.326 1.088 1.088 0 0 1 .073-.209 1.076 1.076 0 0 1 .182-.242 1.103 1.103 0 0 1 .537-.286 1.076 1.076 0 0 1 .604.05c.083.028.16.065.233.11.065.04.125.088.18.142a1.073 1.073 0 0 1 .165.243 6.29 6.29 0 0 1 3.216 1.468 1.078 1.078 0 0 1 .44-.13c.057-.003.114.002.17.014a1.096 1.096 0 0 1 .476.218c.036.03.07.064.1.1a1.037 1.037 0 0 1 .208.385c.02.092.025.187.017.28a6.258 6.258 0 0 1 2.205 2.817.998.998 0 0 1 .114-.012 1.082 1.082 0 0 1 .407.08 1.075 1.075 0 0 1 .244.155c.065.057.123.12.174.19a1.076 1.076 0 0 1 .177.498 1.012 1.012 0 0 1-.019.278 1.07 1.07 0 0 1-.092.26 1.088 1.088 0 0 1-.202.26 6.217 6.217 0 0 1-.199 3.4 1.053 1.053 0 0 1 .1.149c.033.064.06.13.08.2a1.066 1.066 0 0 1-.004.571 1.07 1.07 0 0 1-.091.225 1.076 1.076 0 0 1-.147.188 1.062 1.062 0 0 1-.399.252 6.267 6.267 0 0 1-1.523 2.562z"/></svg>
