<svg xmlns="http://www.w3.org/2000/svg" viewBox="0 0 24 24"><path fill="currentColor" d="M10.128 2.388c1.907-.557 4.082-.263 5.768.828 1.47.94 2.541 2.476 2.98 4.179.27.967.315 1.985.195 2.974-.32-.04-.64-.085-.96-.126-.367-.047-.736-.1-1.104-.14-.22-1.317-.876-2.56-1.877-3.442-1.153-1.028-2.722-1.573-4.254-1.39-1.543.137-2.986.948-3.907 2.19-.942 1.248-1.308 2.886-.98 4.384.307 1.476 1.23 2.786 2.5 3.572 1.133.71 2.49.995 3.81.854.095.363.18.728.27 1.091.093.368.185.738.27 1.108-1.906.404-3.938.159-5.652-.717-1.596-.8-2.868-2.16-3.602-3.77-.8-1.743-.9-3.773-.308-5.582.505-1.563 1.523-2.935 2.852-3.882A8.44 8.44 0 0 1 10.128 2.388zM17.334 11.736c.756-.003 1.512.002 2.268 0 .02.72.02 1.44-.005 2.156.347.58.685 1.163 1.02 1.748.36-.578.697-1.168 1.052-1.748-.005-.72-.002-1.44-.002-2.157h2.268c-.002 1.108.002 2.216-.003 3.324-.693 1.18-1.397 2.353-2.087 3.536-.68-1.183-1.365-2.36-2.048-3.54-.163-.282-.33-.56-.496-.838.005-.127-.002-.254-.002-.38.002-.88 0-1.76 0-2.64h-.004l.01-.002c.01-.152.02-.313.03-.46zm-16.27.001c.86-.002 1.72.003 2.58 0 .003.715-.002 1.43.002 2.144.702 1.192 1.397 2.39 2.098 3.582.38-.002 1.138.001 1.518 0 .69-1.19 1.393-2.375 2.084-3.564.01-.72.003-1.44.003-2.16h2.58c-.005 1.108.002 2.216-.003 3.322-.367.626-.736 1.25-1.102 1.876l-1.001 1.71c-.68-.003-1.36 0-2.04-.002-.344-.59-.688-1.184-1.032-1.776-.35.59-.694 1.183-1.038 1.776h-2.036c-.697-1.194-1.39-2.39-2.093-3.58-.002-1.107.002-2.22-.002-3.328h.482z"/></svg>
