<svg xmlns="http://www.w3.org/2000/svg" viewBox="0 0 24 24"><path fill="currentColor" d="M17.128 0a10.134 10.134 0 0 0-2.755.403l-.063.02a10.922 10.922 0 0 0-1.612-.136c-.36-.005-.724.017-1.085.066-1.07-.34-2.19-.512-3.315-.508C4.005-.17.479 3.105.044 7.399c-.208 2.052.145 4.188.987 6.975.363 1.2.993 3.42 2.284 4.904.535.614 1.36 1.373 2.508 1.221.878-.116 1.45-.796 1.867-1.59.249.09.51.159.776.206l.088.022c-.21.932-.145 1.762.261 2.349.594.856 1.637 1.07 2.397 1.07a5.44 5.44 0 0 0 1.115-.121c1.025-.208 1.937-.672 2.437-1.28.394-.478.637-1.096.76-1.947l.043-.014a9.85 9.85 0 0 0 .701-.261c.014.074.024.148.032.222.031.296.084.685.239 1.103.129.349.404.87.912 1.213.53.357 1.14.44 1.647.44.376 0 .727-.056 1.005-.107 3.076-.562 4.795-2.276 6.066-4.463l.066-.113C24.104 13.304 24.09 7.32 22.177 4.3l-.037-.057a4.661 4.661 0 0 0-1.453-1.44C19.551.475 18.318.048 17.128 0zM9.273 1.448c.361-.008.738.018 1.117.075.14.024.28.054.418.091-.3.127-.59.272-.864.437A10.667 10.667 0 0 0 5.15 7.126a8.86 8.86 0 0 0-.318 1.665c-.01.078-.021.157-.027.234a8.639 8.639 0 0 1-.018-.345c-.007-1.365.265-2.676.804-3.834.888-1.906 2.24-3.248 3.682-3.398zm7.855.173c.985.02 1.945.368 2.735.953a3.725 3.725 0 0 1 1.146 1.137c1.072 1.695 1.678 4.63 1.46 7.505-.093-.324-.225-.64-.393-.94l-.16-.275c.418-2.1-.038-4.372-1.3-5.73-.79-.852-1.726-1.195-2.788-1.022-1.12.183-2.068.862-2.766 1.964l-.036.057c-.273.006-.454.018-.75.064l-.082.012a7.11 7.11 0 0 1 .493-.683c.66-.83 1.413-1.032 2.441-1.042zm-7.626 1.58c.508-.015.963.093 1.324.297a1.775 1.775 0 0 1 .342.278c-.093.028-.186.059-.278.093a10.47 10.47 0 0 0-3.823 2.67 7.098 7.098 0 0 0-.323.366l-.028.037a8.15 8.15 0 0 1 2.786-3.74zm10.122.982c.69-.024 1.268.23 1.79.793 1.06 1.14 1.455 3.11 1.111 4.986a5.737 5.737 0 0 0-.16-.248 6.672 6.672 0 0 0-.687-.854c.027-.459.01-.933-.054-1.4-.187-1.366-.789-2.12-1.39-2.527-.144-.098-.32-.16-.48-.198.28-.19.559-.374.843-.54l.006-.004c-.005-.003-.15-.006-.245-.006a2.98 2.98 0 0 1-.734-.002zM6.146 6.61c-.009.009-.016.019-.024.028a7.42 7.42 0 0 0-1.308 2.418c-.186.565-.32 1.15-.399 1.744l-.014.1c-.114 2.36.732 4.216 1.543 5.478.267.416.537.782.793 1.097-.098.237-.194.476-.286.72-.284.241-.535.355-.715.427a6.3 6.3 0 0 1-.278-.695c-.267-.682-.48-1.285-.624-1.78a16.866 16.866 0 0 1-.894-6.323c.076-1.288.58-2.437 1.207-3.215zm8.567 1.19c.233-.004.464.014.692.052a3.42 3.42 0 0 1 1.277.504c.49.334.857.819 1.044 1.38.275 1.226.108 2.506-.312 3.553-.17.354-.535.794-1.045 1.3.203-1.03.209-2.106-.042-3.086a5.413 5.413 0 0 0-.484-1.263 4.66 4.66 0 0 0-2.36-2.168c.367-.173.76-.265 1.23-.272zm-2.96.45c.254 0 .498.044.721.13l.022.009.021.01c.87.405 1.365.987 1.736 1.63.205.355.36.753.456 1.173.131.573.158 1.16.094 1.754a13.68 13.68 0 0 1-.247 1.47 7.394 7.394 0 0 1-.048.192 5.91 5.91 0 0 0-.41-.537l-.093-.105c-.06-.064-.12-.127-.183-.187a8.483 8.483 0 0 0-.72-.618l-.005-.004c.068-.316.114-.638.137-.962.056-.773-.003-1.574-.41-2.133-.323-.442-.766-.618-1.178-.742l-.027-.008c.088-.06.19-.11.305-.146a1.88 1.88 0 0 1 .573-.093c.085-.003.171.002.256.012-.085-.01-.17-.015-.256-.012a.853.853 0 0 0-.075.008l-.082.003a4.4 4.4 0 0 0-1.185.293l-.025.009a2.52 2.52 0 0 0-.147-.059l-.066-.023c.08-.159.18-.3.312-.422a3.21 3.21 0 0 1 .523-.418zm1.24 3.47c.217-.003.431.06.605.184.343.244.547.639.595 1.055a3.03 3.03 0 0 1-.37 1.792 3.168 3.168 0 0 0-.255-.498c-.253-.397-.629-.64-1.023-.707.082-.329.16-.756.19-1.16.04-.087.104-.261.108-.389a.69.69 0 0 1 .15-.277zm-4.87.154c.146-.002.3.024.455.08.324.116.53.3.77.55.074.077.15.142.223.21 0 0-.25.185-.44.393a3.736 3.736 0 0 0-.506.68c-.3.505-.486 1.132-.358 1.758.037.182.12.352.241.495-.247-.035-.47-.12-.645-.261-.324-.261-.511-.662-.56-1.095a3.035 3.035 0 0 1 .332-1.74c.115-.266.294-.459.489-.647.057-.055.123-.134.191-.198l.009-.008a1.2 1.2 0 0 0-.182-.145l-.019-.011zm7.42 1.204c.265.305.503.665.695 1.088.184.404.444 1.189.407 1.822-.03.502-.175.92-.467 1.139a1.621 1.621 0 0 1-.469.238c.05-.283.074-.574.043-.858-.058-.536-.31-.97-.673-1.275a1.866 1.866 0 0 0-.316-.212c.137-.137.261-.264.4-.413.25-.265.455-.56.603-.896.072-.156.122-.306.158-.454l.069-.088c-.145.027-.402.01-.451-.09zm-6.285.697a.6.6 0 0 1 .149.023c.165.053.29.138.364.249.241.36.182 1.102.141 1.44a4.093 4.093 0 0 1-.062.358l-.012.054-.003.012-.004.017-.002-.005c-.157.476-.353.767-.616.975-.298.236-.629.34-1.006.363.168-.183.297-.397.375-.635l.007-.022a2.916 2.916 0 0 0 .072-.245c.077-.308.096-.655.09-.978a4.08 4.08 0 0 0-.048-.518 2.16 2.16 0 0 0-.066-.3c-.021-.07-.059-.296-.059-.296l-.003-.014zM7.802 15.2c-.006 0-.014-.003-.02-.003.014-.002.025.001.02.003zm5.115 0c.113.188.187.394.215.61.04.312-.015.64-.147.96-.15.363-.42.647-.752.845a2.126 2.126 0 0 1-.606.25c-.237.057-.461.077-.733.07a2.626 2.626 0 0 1-.91-.181c.04-.123.078-.249.11-.379.088-.363.102-.74.036-1.107-.027-.149-.074-.303-.143-.452.128.084.268.159.418.221.243.1.506.16.782.173.396.018.779-.073 1.09-.282.14-.095.265-.214.367-.356a4 4 0 0 0 .273-.372zm-6.8.437c.128.088.258.17.39.246.35.2.698.34 1.007.38a1.67 1.67 0 0 1-.303.7c-.146.198-.318.351-.526.462a2.59 2.59 0 0 0 .073-.384c.05-.444-.056-.866-.28-1.204a1.45 1.45 0 0 0-.36-.2zm9.14.48c.22.156.369.384.412.67.064.422-.098.844-.396 1.098-.155.132-.335.218-.544.274.04-.102.075-.207.1-.316.078-.34.045-.692-.107-1.007a1.376 1.376 0 0 0-.294-.38l.085-.054c.12-.075.34-.19.468-.181a.58.58 0 0 1 .275-.104zm-6.71.666c.114.112.204.258.258.432.091.291.059.612-.09.88a1.44 1.44 0 0 1-.282.351c-.057.05-.116.095-.178.134.017-.243.024-.49.017-.739a6.67 6.67 0 0 0-.105-1.03l.018-.008c.137-.047.268-.05.361-.02zm4.448.222c.063.087.117.18.161.28.116.266.136.537.076.797a1.32 1.32 0 0 1-.123.331 3.572 3.572 0 0 1-.5.668c-.04-.367-.112-.73-.244-1.059a2.396 2.396 0 0 0-.127-.271c.261-.224.481-.46.645-.669l.062-.04z"/></svg>
