<svg xmlns="http://www.w3.org/2000/svg" viewBox="0 0 24 24"><path fill="currentColor" d="M14.23 12.004a2.236 2.236 0 0 1-2.235 2.236 2.236 2.236 0 0 1-2.236-2.236 2.236 2.236 0 0 1 2.235-2.236 2.236 2.236 0 0 1 2.236 2.236zm2.648-10.69c-1.346 0-3.107.96-4.888 2.622-1.78-1.653-3.542-2.602-4.887-2.602-.31 0-.592.068-.838.182-.749.353-1.097 1.214-1.097 2.52 0 1.254.403 2.822 1.166 4.55C5.098 10.17 4.44 11.78 4.44 13.2c0 1.299.354 2.156 1.098 2.512.242.112.526.18.838.18 1.345 0 3.107-.953 4.888-2.6 1.78 1.647 3.542 2.6 4.887 2.6.31 0 .594-.068.839-.18.744-.356 1.097-1.213 1.097-2.512 0-1.42-.658-3.03-1.894-4.618.764-1.727 1.168-3.296 1.168-4.553 0-1.306-.354-2.165-1.098-2.517-.244-.114-.526-.182-.839-.182zm0 1.048c.615 0 .936.525.936 1.598 0 .991-.336 2.32-.984 3.828a20.76 20.76 0 0 0-2.41-2.748c1.37-1.536 2.556-2.678 3.458-2.678zm-9.532 0c.902 0 2.088 1.142 3.459 2.677a20.85 20.85 0 0 0-2.41 2.75c-.648-1.508-.984-2.837-.984-3.828 0-1.073.32-1.599.935-1.599zM12 8.1a19.04 19.04 0 0 1 2.036 2.3A18.836 18.836 0 0 1 12 12.72a19.11 19.11 0 0 1-2.036-2.32A18.702 18.702 0 0 1 12 8.1zm-4.537 3.397c.676 1.04 1.443 2.074 2.3 3.077-1.456-.16-2.7-.52-3.564-.987-.35-.188-.525-.476-.525-.988 0-.487.193-.94.527-1.365.353.107.776.188 1.262.263zm9.075 0c.486-.075.91-.156 1.262-.263.334.424.527.878.527 1.365 0 .512-.176.8-.526.988-.863.467-2.107.828-3.564.987a22.164 22.164 0 0 0 2.301-3.077zM6.376 15.328c.614 0 2.088-1.141 3.46-2.676.66.771 1.362 1.493 2.073 2.148-1.78 1.661-3.542 2.612-4.887 2.612-.616 0-.936-.512-.936-1.588 0-.04.002-.074.004-.112.178.028.362.044.553.044.235-.002.479-.018.733-.044z"/></svg>
